<?xml version="1.0" encoding="UTF-8"?>
<svg width="582px" height="592px" viewBox="0 0 582 592" version="1.1" xmlns="http://www.w3.org/2000/svg" xmlns:xlink="http://www.w3.org/1999/xlink">
    <!-- http://www.hatchet.com.au -->
    <title>Database Software - Light - Animated</title>
    <desc>Copyright - Hatchet Pty Ltd</desc>
    <defs></defs>
    <style>
        #draw path {
            stroke: #1EB771;
            fill: #DADBDB;
            stroke-width: 5;
            stroke-dasharray: 870;
            stroke-dashoffset: 870;
            animation: draw 3s infinite linear;
        }

        @keyframes draw {
            to {
                stroke-dashoffset: 0;
                fill: #1EB771;
            }
        }
    </style>
    <g id="Page-1" stroke="none" stroke-width="1" fill="none" fill-rule="evenodd">
        <g id="dont-sacrifice" fill-rule="nonzero">
            <g id="outer">
                <path d="M438.3,549.3 C495.4,514.6 539.9,461.3 563.2,398.7 C586.9,335.1 587.6,263.4 565.3,199.3 C543.3,136.1 499.7,81.3 443,45.7 C385.8,9.7 316.6,-5.5 249.6,2.9 C183.4,11.2 121.2,42 74.6,89.7 C68.8,95.7 63.2,101.9 57.9,108.4 C54.2,112.8 60.6,119.2 64.3,114.8 C105.5,65 162.3,29.7 225.6,16.1 C289.7,2 358.3,10.9 416.8,41 C474.4,70.7 520.9,119.7 547.5,178.7 C574.6,238.8 579.7,308 562.4,371.5 C545.4,433.9 506.8,489.8 454.4,527.7 C447.7,532.6 440.8,537.1 433.7,541.4 C428.8,544.5 433.3,552.3 438.3,549.3 Z"  fill="#DB373E"></path>
                <path d="M0.4,372.2 C26.8,470 103.2,549.5 200.3,578.9 C228.1,587.3 257,591.4 286,591.5 C291.8,591.5 291.8,582.5 286,582.5 C236.7,582.3 188,569.8 145.1,545.5 C102.2,521.2 65.9,485.9 40.5,443.7 C26.6,420.6 16.1,395.8 9.1,369.8 C7.6,364.2 -1.1,366.6 0.4,372.2 Z"  fill="#DB373E"></path>
                <path d="M133.7,509.8 C196.2,554.2 276.4,569.3 350.8,550.4 C422.2,532.3 484,483.4 518.3,418.3 C538.1,380.6 548.3,338.5 548.5,296 C548.5,290.2 539.5,290.2 539.5,296 C539.2,368.3 508.2,437.7 454.1,485.8 C399,534.7 323.6,557.4 250.6,547.1 C210.1,541.4 171.6,525.7 138.2,502.1 C133.5,498.7 129,506.5 133.7,509.8 Z"  fill="#666666"></path>
                <path d="M362.2,44.7 C272,17.7 172.2,41.4 104.2,106.6 C85.6,124.4 69.8,145 57.1,167.4 C54.2,172.4 62,177 64.9,171.9 C109.5,93.4 193.6,43.2 284.1,42.5 C309.8,42.3 335.2,46 359.8,53.4 C365.4,55.1 367.7,46.4 362.2,44.7 Z"  fill="#666666"></path>
            </g>
            <g id="server" transform="translate(86, 165)">
                <path d="M119,200.9 C165.8,194.8 212.7,195.3 259.7,196.3 C290.9,196.9 322,197.4 353.2,196.6 C369.6,196.2 374.2,200.1 375.9,216.6 C377,227.1 376.8,237.6 376.9,248.1 C377,257.4 376.7,266.7 377.9,276 C379.2,286.7 375.6,290.4 364.8,290.4 C354.3,290.4 343.8,290.3 333.3,289.7 C287.6,287.3 242,288.9 196.4,290.7 C172.9,291.6 149.5,292.6 126,294.3 C116.5,295 113,291.4 111.7,280.3 C109.2,258 106.7,235.6 107.9,213.1 C110.9,208.2 114.7,204.4 119,200.9 Z M348,215 C344.6,211.1 339.9,211.9 335.6,212 C320.7,212.6 309.7,228.9 315.4,241.8 C320.7,253.8 334.1,259.8 345.4,255.2 C359,249.8 362.6,237.9 358.9,224.4 C357.5,219.3 353.9,215.5 348,215 Z M364,274 C363.6,271.1 362.2,268.6 359.2,268.5 C355.9,268.4 354.3,271 354,274.1 C353.8,277 355.3,278.9 358.3,279 C361.7,279.1 363.5,277.2 364,274 Z M334,275.9 C334.2,278.2 335.7,280.1 338.9,280 C341.7,279.9 343.8,278.3 343.7,275.4 C343.6,272.3 341.2,271 338.2,270.9 C335.4,270.8 333.9,272.2 334,275.9 Z M325.8,274.5 C325.3,272 323.8,270.2 321.1,270.2 C318.3,270.2 316.9,272 316.9,274.7 C316.9,277.5 318.6,278.9 321.3,279 C324.3,279 325.3,277 325.8,274.5 Z M219.1,225.2 C217.3,225.9 215.6,227.1 215.3,229.4 C215.1,231.1 215.9,232.8 217.9,232.9 C220.5,233 221.7,231.3 222,228.9 C222.2,227.1 221.6,225.7 219.1,225.2 Z M252.9,253.8 C254.3,253.2 255.9,252.3 255.7,250.4 C255.5,248.6 254.3,247.3 252.4,247.4 C250.6,247.5 249.3,248.8 249.4,250.7 C249.4,252.5 250.8,253.6 252.9,253.8 Z M253.1,225.2 C251.1,225.3 250.1,226.4 250,228.3 C249.9,230.1 250.5,231.7 252.6,231.7 C254.5,231.7 255.6,230.3 255.8,228.5 C256,226.6 255.1,225.4 253.1,225.2 Z M264.8,224.3 C263.4,224.8 262.1,225.8 262.1,227.7 C262,229.6 263.1,230.8 265,230.8 C267,230.8 267.9,229.5 268,227.6 C268.1,225.7 266.9,224.8 264.8,224.3 Z M220,252 C221.8,251.9 222.9,251 222.9,249.3 C222.9,247.6 222.1,246.3 220.3,246.4 C218.6,246.5 217.5,247.6 217.3,249.2 C217.1,251 218.3,251.8 220,252 Z M229.1,237.2 C227.4,237.7 226.2,238.8 226.4,240.7 C226.6,242.2 227.8,242.9 229.3,242.8 C231.1,242.7 232,241.7 232,239.9 C231.9,238.2 230.9,237.2 229.1,237.2 Z M243.9,230 C243.8,228.2 242.9,227.1 241.2,227.1 C239.5,227 238.3,227.9 238.3,229.7 C238.4,231.4 239.5,232.5 241.1,232.7 C242.9,232.9 243.7,231.7 243.9,230 Z M232.9,229.6 C232.8,227.9 231.8,226.6 230.3,226.4 C228.4,226.2 227.2,227.6 227.1,229.4 C227,231.1 228.1,232.4 229.7,232.5 C231.6,232.8 232.5,231.3 232.9,229.6 Z M234.9,251.7 C234.7,249.8 233.7,249 231.9,249 C230.4,249 229.3,249.9 229.3,251.4 C229.3,253 230.3,254.4 232,254.4 C233.6,254.5 234.6,253.3 234.9,251.7 Z M265.9,250.2 C265.5,248.9 264.8,247.5 263.1,247.5 C261.4,247.5 260.4,248.8 260.3,250.4 C260.2,252 261.3,252.8 262.8,252.9 C264.5,253.1 265.6,252.3 265.9,250.2 Z M255,238.8 C254.8,237.3 253.7,236.4 252,236.4 C250.6,236.5 249.5,237.5 249.5,239 C249.5,240.6 250.3,241.9 252.2,241.9 C254,241.9 254.9,240.8 255,238.8 Z M244.1,250.8 C243.9,249.7 243.4,248.4 241.7,248.5 C240.1,248.6 238.9,249.6 239,251.4 C239.2,253.1 240.3,254.1 242,253.9 C243.8,253.8 244.1,252.5 244.1,250.8 Z M244,240.5 C244,238.9 243.2,238 241.6,237.9 C239.7,237.9 238.9,238.8 238.9,240.7 C239,242.4 240,243 241.5,243 C243.2,243 244,242.1 244,240.5 Z"  fill="#676767"></path>
                <path d="M107.8,35 C107.9,27.8 107.3,20.7 108.8,13.6 C109.8,8.8 112.4,6.3 117.5,5.6 C144,2.1 170.6,0.9 197.3,0.4 C230.5,-0.2 263.6,1.1 296.8,1.6 C314.3,1.9 331.8,1.3 349.3,1.2 C352.5,1.2 355.6,1.1 358.8,1.2 C369.2,1.7 373,5.1 375,15.3 C376.9,24.8 376.7,34.5 376.9,44.2 C377.2,56.5 376.4,68.8 377.9,81.1 C379.1,91.5 375.4,95.1 364.7,94.9 C341.5,94.4 318.4,93.5 295.3,93.1 C249.4,92.2 203.7,95.2 157.9,96.8 C156.8,90.5 156.6,84 156.5,77.6 C156.4,65.3 153.3,53.3 152.2,41.1 C151.9,38 149.8,36.8 147,37.1 C142,37.5 137.1,38.5 132.1,38.5 C123.8,38.4 115.4,39.4 107.8,35 Z M360.1,37.9 C361.6,22.3 348.3,16.2 337.6,16.4 C324.3,16.6 314.5,25.1 314,39.1 C313.6,50.5 324.5,61 336.6,61.2 C350.7,61.3 359.9,52.2 360.1,37.9 Z M353.9,78.7 C354,81.9 355.3,83.9 358.3,83.9 C361.8,83.9 363.9,81.8 363.9,78.3 C363.9,75.3 361.9,73.1 358.9,73.3 C355.7,73.4 354.2,75.8 353.9,78.7 Z M338.1,75 C335.7,75.5 333.9,76.8 334,79.6 C334.1,82.7 336,84.7 339,84.7 C341.8,84.7 343.8,82.8 343.7,79.9 C343.7,76.7 340.9,75.8 338.1,75 Z M325.8,79.6 C325.3,77.1 324.4,75.1 321.5,75 C318.8,75 317.2,76.4 316.9,79.1 C316.7,82 318.5,83.5 321,83.7 C323.7,83.9 325,81.9 325.8,79.6 Z M222.1,33.3 C222,31.4 221.2,30.1 219.2,30.1 C216.5,30.1 215.6,32.3 215.4,34.4 C215.3,36.2 216.6,37.7 218.4,37.6 C220.9,37.6 221.8,35.7 222.1,33.3 Z M265.2,35.6 C267,35.1 268.1,34.1 268,32.1 C267.9,30.2 266.9,29 264.9,29.1 C262.9,29.2 262,30.5 262.1,32.4 C262.3,34.2 263.4,35.3 265.2,35.6 Z M255.6,55 C255.1,53.3 254.1,52 252.2,52.2 C250.4,52.4 249.2,53.7 249.3,55.6 C249.4,57.3 250.7,58 252.4,58 C254.4,58.1 255.3,56.8 255.6,55 Z M263,52.2 C261.3,52.3 260.2,53.2 260.2,54.9 C260.1,56.9 261.3,58 263.3,57.8 C265,57.7 266,56.6 265.9,54.9 C265.8,53.2 264.7,52.3 263,52.2 Z M252.9,30 C250.9,30.2 249.9,31.3 250.1,33.3 C250.2,35 251.3,36 253,36 C255,35.9 256,34.7 255.9,32.8 C255.7,31 254.7,30.1 252.9,30 Z M232.9,33.7 C232.6,32.2 231.8,31.1 230,31.1 C228,31.1 227,32.3 227.1,34.3 C227.2,36 228.2,37 230,37 C232,37 232.9,35.8 232.9,33.7 Z M231.9,58.9 C233.7,58.8 234.8,58 234.9,56.2 C235,54.5 234.2,53.2 232.4,53.2 C230.7,53.2 229.6,54.3 229.4,55.9 C229.1,57.9 230.3,58.7 231.9,58.9 Z M222.9,53.8 C222.7,52.3 222,51.1 220.2,51.1 C218.5,51.1 217.3,51.9 217.3,53.7 C217.4,55.3 218.5,56.5 220.1,56.7 C221.9,56.9 222.7,55.7 222.9,53.8 Z M231.9,44.8 C231.8,43.1 230.8,42.1 229.1,42 C227.4,42 226.2,42.8 226.3,44.6 C226.4,46.2 227.4,47.4 229.1,47.5 C230.7,47.5 231.8,46.6 231.9,44.8 Z M241.6,58.8 C243.2,58.5 244.5,57.7 244.5,56 C244.5,54.3 243.2,53.3 241.6,53.2 C240,53.2 239.2,54.2 239.1,55.7 C238.9,57.5 239.7,58.6 241.6,58.8 Z M241.5,42.2 C239.9,42.5 238.9,43.4 239,45.2 C239,46.7 239.8,47.8 241.4,47.9 C243.1,48 244.3,46.8 244.5,45.2 C244.6,43.4 243.2,42.6 241.5,42.2 Z M255,44.1 C254.9,42.4 254.2,41.1 252.4,41.2 C250.7,41.2 249.5,42.3 249.5,44 C249.5,45.5 250.7,46.4 252,46.7 C253.8,47 254.7,45.8 255,44.1 Z M243.9,34.1 C243.5,32.9 242.7,31.5 241,31.5 C239.3,31.5 238.3,32.8 238.3,34.5 C238.3,36 239.3,36.9 240.8,37 C242.6,37.1 243.7,36.3 243.9,34.1 Z"  fill="#676767"></path>
                <path d="M157.9,99.1 C202.7,96.7 247.5,97.8 292.3,98.9 C312.5,99.4 332.6,99 352.8,98.5 C369.6,98.1 374.3,102.2 375.9,119.1 C377.5,136.1 376.2,153.1 377,170 C377.2,173.6 377.8,177.3 377.8,180.9 C377.9,188.6 374.7,192 367,192.1 C355.8,192.2 344.7,192 333.5,191.5 C294,189.6 254.6,190.1 215.1,191.8 C185.7,193.1 156.2,193.6 126.8,196.1 C125.2,196.2 123.5,196 121.8,196 C125.7,189.7 129.7,183.4 133.6,177 C144.7,158.7 152.5,139.1 156,117.8 C157.2,111.6 156,105.2 157.9,99.1 Z M360.1,133.9 C361.5,118.6 349.2,113 338.2,112.3 C325.5,111.6 314.3,122.2 314,134.4 C313.7,146.2 324.3,156.9 336.6,157.1 C350.5,157.4 359.9,148.2 360.1,133.9 Z M357.8,167 C353.7,167.1 350.2,170.3 350.4,173.8 C350.6,177.2 352.7,179.3 356.1,179.6 C359.5,179.8 363,176.2 362.7,172.9 C362.4,169.6 360.9,167.2 357.8,167 Z M323,172.7 C323,169.8 322.3,166.9 318.8,167.3 C315.4,167.6 313.1,170.1 313.1,173.7 C313.1,176.7 315.1,178.8 318.1,178.8 C321.8,178.8 323,176.1 323,172.7 Z M331.9,172.4 C332.1,175.1 333.5,177.1 336.8,177 C340,176.9 341.6,174.6 341.6,171.7 C341.5,169.1 339.9,166.9 336.9,167 C333.6,167 332,168.9 331.9,172.4 Z M218.4,137 C220.7,136.5 221.9,135 222,132.6 C222.1,130.6 220.8,129.4 219,129.5 C216.7,129.7 215.7,131.7 215.5,133.7 C215.2,135.5 216.2,136.9 218.4,137 Z M255.9,132.9 C255.8,131.1 254.9,129.6 253.1,129.5 C251.3,129.4 250.1,130.5 250,132.5 C250,134.4 250.7,135.7 252.7,135.9 C254.7,136 255.7,134.8 255.9,132.9 Z M229.9,130.4 C228.1,130.9 227,132 227,133.9 C227.1,135.9 228.3,137 230.2,136.8 C231.9,136.7 232.9,135.5 232.8,133.8 C232.9,131.9 231.8,130.8 229.9,130.4 Z M255.7,154.8 C255.2,153.2 254.5,151.9 252.4,151.9 C250.7,152 249.4,152.7 249.3,154.4 C249.2,156.3 250.4,157.5 252.2,157.7 C254.1,158 255.1,156.7 255.7,154.8 Z M265,129 C263.1,129.2 262,130.3 262.2,132.3 C262.3,134 263.4,135 265.1,135 C267.1,134.9 268.1,133.7 268,131.8 C267.8,129.9 266.7,129.1 265,129 Z M243.9,134.1 C243.8,132.5 243.1,131.2 241.3,131.2 C239.6,131.2 238.5,132.4 238.3,134 C238.1,135.8 239.3,136.7 241,136.8 C242.8,136.9 243.7,135.9 243.9,134.1 Z M231.9,144.1 C231.8,142.5 231.1,141.2 229.2,141.3 C227.5,141.4 226.4,142.5 226.3,144.1 C226.1,145.9 227.3,146.8 229,146.9 C230.8,146.9 231.8,146 231.9,144.1 Z M234.9,155.8 C234.7,154 233.7,153 232,153.1 C230.3,153.2 229.1,154.1 229.4,155.9 C229.6,157.5 230.7,158.6 232.4,158.7 C234.2,158.7 234.9,157.4 234.9,155.8 Z M220,156.5 C221.6,156.1 222.8,155.1 222.8,153.5 C222.8,151.8 221.7,150.6 220,150.6 C218.3,150.6 217.2,151.9 217.2,153.5 C217.3,155.1 218.4,156.2 220,156.5 Z M265.8,154.8 C265.6,152.9 264.6,152.1 262.9,152.1 C261.4,152.1 260.3,153 260.2,154.5 C260.1,156.2 261.2,157.5 262.8,157.6 C264.6,157.6 265.5,156.3 265.8,154.8 Z M241.5,142.1 C240,142.3 239.1,143.2 239.1,144.7 C239,146.4 239.8,147.7 241.6,147.7 C243.1,147.7 244,146.7 244.1,145.2 C244.1,143.4 243.3,142.3 241.5,142.1 Z M241.6,153 C240,153 239.1,153.7 239,155.3 C238.9,157.2 239.8,158.1 241.7,158 C243.4,158 244.1,157 244.1,155.4 C244,153.9 243.2,153 241.6,153 Z M255,143.6 C255,142 254.3,141.1 252.6,141 C250.7,140.9 249.8,141.8 249.9,143.7 C250,145.3 250.9,146.1 252.5,146 C254.1,146 255,145.2 255,143.6 Z"  fill="#676767"></path>
                <path d="M157.9,99.1 C156,105.2 157.1,111.6 156.1,117.8 C152.7,139.1 144.9,158.7 133.7,177 C129.8,183.4 125.8,189.7 121.9,196 C120.9,197.6 118.9,198.6 118.9,200.8 C114.7,204.3 110.8,208.1 107.9,212.8 C99.5,220.1 91.2,227.5 82.6,234.6 C77.2,239.1 75.8,238.9 70.3,233.7 C61.7,225.6 53.7,216.9 45.7,208.1 C26.3,186.6 13.5,161.8 6.4,133.9 C2.8,119.7 1.4,105.1 0.9,90.5 C0.5,77.9 -0.7,65.3 0.8,52.6 C0.9,51.4 0.8,50.3 0.9,49.1 C2.4,33.3 5.3,31.1 20.7,34.4 C39.4,38.4 55.8,32.8 71.5,23.4 C79.7,18.5 79.8,18.4 87.1,24.2 C93.2,29.1 99.4,33.8 107.5,34.8 C115.1,39.2 123.5,38.2 131.7,38.2 C136.7,38.2 141.6,37.2 146.6,36.8 C149.5,36.6 151.6,37.7 151.8,40.8 C152.9,53 155.9,65 156.1,77.3 C156.2,83.7 156.4,90.1 157.5,96.5 C157.8,97.5 157.9,98.3 157.9,99.1 Z M9.8,71 C10.1,81.2 10.1,90.6 10.7,100.1 C11.6,112.7 13.4,125.2 16.7,137.4 C26.4,173.3 48.8,200.8 75.1,225.6 C76.8,227.2 78.1,227.2 79.8,225.6 C85.1,220.8 90.7,216.3 95.9,211.4 C113.5,195 126,175.2 136.1,153.6 C142.2,140.4 146.9,126.6 147.8,112.1 C149.1,91.2 148.1,70.2 144.1,49.6 C143.6,47.2 143.2,46.4 140.3,46.5 C133.6,46.9 126.9,47.8 120,47.2 C106.2,46 94.1,41.2 83.5,32.7 C79.9,29.8 77.7,30.3 74.4,32.2 C56.4,43 37.2,48 16.2,42.7 C12.6,41.8 11.3,42.3 10.6,46.2 C9.3,54.8 10.3,63.3 9.8,71 Z"  fill="#87B3D6"></path>
                <path d="M364,274 C363.5,277.2 361.7,279.1 358.4,279 C355.4,278.9 353.8,277.1 354.1,274.1 C354.3,271 356,268.4 359.3,268.5 C362.2,268.6 363.6,271.1 364,274 Z"  fill="#AFAFAF"></path>
                <path d="M334,275.9 C333.9,272.2 335.4,270.8 338.2,270.9 C341.1,271 343.6,272.3 343.7,275.4 C343.8,278.3 341.7,279.9 338.9,280 C335.7,280 334.2,278.1 334,275.9 Z"  fill="#AFAFAF"></path>
                <path d="M325.8,274.5 C325.3,277 324.3,279 321.4,279 C318.7,279 317,277.5 317,274.7 C317,272 318.4,270.2 321.2,270.2 C323.9,270.2 325.3,271.9 325.8,274.5 Z"  fill="#AFAFAF"></path>
                <path d="M252.9,253.8 C250.8,253.6 249.5,252.5 249.3,250.7 C249.2,248.8 250.5,247.5 252.3,247.4 C254.2,247.3 255.5,248.6 255.6,250.4 C255.8,252.3 254.3,253.2 252.9,253.8 Z"  fill="#AFAFAF"></path>
                <path d="M253.1,225.2 C255.1,225.4 256.1,226.6 255.9,228.6 C255.7,230.4 254.6,231.8 252.7,231.8 C250.6,231.8 250,230.2 250.1,228.4 C250.1,226.4 251.1,225.2 253.1,225.2 Z"  fill="#AFAFAF"></path>
                <path d="M220,252 C218.3,251.8 217.1,251 217.3,249.2 C217.5,247.6 218.6,246.5 220.3,246.4 C222.1,246.3 222.9,247.6 222.9,249.3 C222.9,251 221.7,251.9 220,252 Z"  fill="#AFAFAF"></path>
                <path d="M229.1,237.2 C231,237.2 231.9,238.2 231.9,240 C231.9,241.7 231,242.8 229.2,242.9 C227.7,243 226.5,242.3 226.3,240.8 C226.1,238.8 227.4,237.8 229.1,237.2 Z"  fill="#AFAFAF"></path>
                <path d="M243.9,230 C243.7,231.6 242.9,232.9 241.1,232.7 C239.5,232.5 238.4,231.4 238.3,229.7 C238.2,227.9 239.5,227 241.2,227.1 C243,227.2 243.8,228.3 243.9,230 Z"  fill="#AFAFAF"></path>
                <path d="M234.9,251.7 C234.6,253.3 233.6,254.5 232,254.5 C230.3,254.4 229.3,253.1 229.3,251.5 C229.3,250 230.4,249.1 231.9,249.1 C233.7,249 234.7,249.8 234.9,251.7 Z"  fill="#AFAFAF"></path>
                <path d="M265.9,250.2 C265.6,252.3 264.5,253.1 262.8,253 C261.3,252.9 260.2,252 260.3,250.5 C260.4,248.8 261.4,247.6 263.1,247.6 C264.7,247.5 265.5,249 265.9,250.2 Z"  fill="#AFAFAF"></path>
                <path d="M255,238.8 C254.9,240.8 254,241.9 252.2,241.9 C250.3,241.9 249.5,240.6 249.5,239 C249.5,237.5 250.6,236.5 252,236.4 C253.7,236.4 254.8,237.4 255,238.8 Z"  fill="#AFAFAF"></path>
                <path d="M244.1,250.8 C244.1,252.5 243.8,253.8 242.1,253.9 C240.3,254.1 239.2,253.1 239.1,251.4 C238.9,249.5 240.2,248.6 241.8,248.5 C243.3,248.3 243.9,249.7 244.1,250.8 Z"  fill="#AFAFAF"></path>
                <path d="M244,240.5 C244,242.1 243.2,243 241.6,243 C240.1,243 239.1,242.4 239,240.7 C238.9,238.9 239.8,237.9 241.7,237.9 C243.3,238 244,239 244,240.5 Z"  fill="#AFAFAF"></path>
                <path d="M338.1,75 C340.9,75.8 343.7,76.7 343.7,80 C343.7,82.8 341.8,84.8 339,84.8 C336,84.8 334.2,82.7 334,79.7 C333.9,76.8 335.7,75.5 338.1,75 Z"  fill="#AFAFAF"></path>
                <path d="M325.8,79.6 C325,81.9 323.7,83.9 321,83.7 C318.5,83.5 316.7,82 316.9,79.1 C317.1,76.4 318.7,75 321.5,75 C324.4,75 325.3,77.1 325.8,79.6 Z"  fill="#AFAFAF"></path>
                <path d="M222.1,33.3 C221.9,35.6 221,37.6 218.4,37.7 C216.6,37.7 215.3,36.2 215.4,34.5 C215.6,32.3 216.5,30.2 219.2,30.2 C221.2,30.1 221.9,31.4 222.1,33.3 Z"  fill="#AFAFAF"></path>
                <path d="M265.2,35.6 C263.3,35.3 262.2,34.2 262.1,32.4 C262,30.5 262.9,29.2 264.9,29.1 C266.9,29 267.9,30.2 268,32.1 C268.1,34.1 267,35.1 265.2,35.6 Z"  fill="#AFAFAF"></path>
                <path d="M255.6,55 C255.3,56.8 254.4,58.1 252.4,58 C250.7,58 249.4,57.3 249.3,55.6 C249.2,53.7 250.4,52.5 252.2,52.2 C254.1,52 255.1,53.3 255.6,55 Z"  fill="#AFAFAF"></path>
                <path d="M231.9,58.9 C230.3,58.7 229.1,57.8 229.3,56 C229.5,54.4 230.7,53.3 232.3,53.3 C234.1,53.3 234.9,54.6 234.8,56.3 C234.8,58 233.7,58.9 231.9,58.9 Z"  fill="#AFAFAF"></path>
                <path d="M231.9,44.8 C231.8,46.6 230.6,47.5 229,47.5 C227.4,47.5 226.3,46.3 226.2,44.6 C226.1,42.8 227.3,42 229,42 C230.9,42.1 231.8,43.1 231.9,44.8 Z"  fill="#AFAFAF"></path>
                <path d="M241.6,58.8 C239.8,58.5 238.9,57.5 239,55.7 C239.1,54.2 239.9,53.1 241.5,53.2 C243.2,53.3 244.4,54.3 244.4,56 C244.5,57.7 243.1,58.5 241.6,58.8 Z"  fill="#AFAFAF"></path>
                <path d="M255,44.1 C254.7,45.8 253.8,46.9 252,46.6 C250.6,46.4 249.5,45.4 249.5,43.9 C249.5,42.2 250.7,41.1 252.4,41.1 C254.2,41.2 255,42.4 255,44.1 Z"  fill="#AFAFAF"></path>
                <path d="M243.9,34.1 C243.7,36.2 242.6,37 240.8,37 C239.3,36.9 238.2,36 238.3,34.5 C238.3,32.9 239.3,31.6 241,31.5 C242.8,31.5 243.5,32.9 243.9,34.1 Z"  fill="#AFAFAF"></path>
                <path d="M357.8,167 C360.9,167.2 362.4,169.5 362.8,172.8 C363.1,176.1 359.6,179.8 356.2,179.5 C352.8,179.3 350.7,177.1 350.5,173.7 C350.2,170.4 353.7,167.1 357.8,167 Z"  fill="#AFAFAF"></path>
                <path d="M218.4,137 C216.2,136.9 215.2,135.4 215.5,133.7 C215.7,131.7 216.7,129.7 219,129.5 C220.8,129.3 222.1,130.5 222,132.6 C221.9,135 220.7,136.6 218.4,137 Z"  fill="#AFAFAF"></path>
                <path d="M255.9,132.9 C255.7,134.8 254.7,135.9 252.7,135.8 C250.7,135.7 249.9,134.3 250,132.4 C250,130.4 251.3,129.3 253.1,129.4 C254.9,129.6 255.8,131.1 255.9,132.9 Z"  fill="#AFAFAF"></path>
                <path d="M229.9,130.4 C231.8,130.8 232.8,131.9 232.9,133.8 C233,135.5 232,136.7 230.3,136.8 C228.3,137 227.1,135.9 227.1,133.9 C227,132 228.1,130.9 229.9,130.4 Z"  fill="#AFAFAF"></path>
                <path d="M255.7,154.8 C255.2,156.7 254.1,158 252.3,157.7 C250.5,157.5 249.3,156.2 249.4,154.4 C249.5,152.7 250.8,152 252.5,151.9 C254.4,151.9 255.2,153.2 255.7,154.8 Z"  fill="#AFAFAF"></path>
                <path d="M265,129 C266.8,129.1 267.9,130 268,131.7 C268.1,133.7 267.1,134.9 265.1,134.9 C263.3,134.9 262.3,134 262.2,132.2 C262,130.3 263,129.2 265,129 Z"  fill="#AFAFAF"></path>
                <path d="M243.9,134.1 C243.7,135.9 242.7,136.9 241,136.8 C239.3,136.7 238.1,135.8 238.3,134 C238.5,132.4 239.6,131.3 241.3,131.2 C243.1,131.2 243.8,132.5 243.9,134.1 Z"  fill="#AFAFAF"></path>
                <path d="M234.9,155.8 C234.8,157.4 234.1,158.7 232.3,158.7 C230.6,158.7 229.5,157.5 229.3,155.9 C229.1,154.1 230.2,153.2 231.9,153.1 C233.7,153 234.7,154 234.9,155.8 Z"  fill="#AFAFAF"></path>
                <path d="M220,156.5 C218.4,156.1 217.2,155.1 217.2,153.5 C217.2,151.9 218.3,150.5 220,150.6 C221.6,150.6 222.8,151.9 222.8,153.5 C222.9,155.2 221.7,156.1 220,156.5 Z"  fill="#AFAFAF"></path>
                <path d="M241.5,142.1 C243.3,142.4 244.1,143.5 244,145.2 C243.9,146.7 243,147.8 241.5,147.7 C239.7,147.6 238.9,146.4 239,144.7 C239.1,143.2 240,142.3 241.5,142.1 Z"  fill="#AFAFAF"></path>
                <path d="M241.6,153 C243.2,153 244,153.9 244.1,155.5 C244.1,157.1 243.4,158 241.7,158.1 C239.9,158.1 238.9,157.2 239,155.4 C239.1,153.7 240.1,153 241.6,153 Z"  fill="#AFAFAF"></path>
                <path d="M9.8,71 C10.3,63.2 9.3,54.8 10.7,46.3 C11.4,42.3 12.7,41.8 16.3,42.8 C37.2,48.1 56.4,43.1 74.5,32.3 C77.8,30.3 80,29.9 83.6,32.8 C94.1,41.3 106.3,46.1 120.1,47.3 C127,47.9 133.7,47 140.4,46.6 C143.2,46.4 143.7,47.3 144.2,49.7 C148.2,70.4 149.2,91.3 147.9,112.2 C147,126.7 142.4,140.5 136.2,153.7 C126.2,175.3 113.6,195.2 96,211.5 C90.8,216.4 85.2,220.9 79.9,225.7 C78.2,227.2 76.9,227.3 75.2,225.7 C48.8,200.8 26.4,173.3 16.8,137.5 C13.5,125.3 11.7,112.9 10.8,100.2 C10.1,90.7 10.1,81.2 9.8,71 Z M127,74.5 C127.1,72.6 126.1,71.4 124.4,70.7 C121.9,69.7 120.1,71.1 118.8,72.9 C115.4,77.4 112.3,82.1 109.1,86.8 C97.7,103.9 86.3,121.1 74.8,138.2 C71.8,142.7 71.6,142.7 68.9,137.9 C66.8,134.1 64.8,130.3 62.7,126.5 C60,121.7 57.2,116.9 52.8,113.5 C50.9,111.9 48.7,111.9 47,113.8 C45.4,115.5 45.4,117.6 46.9,119.3 C54.3,127.8 58.4,138.3 64.3,147.8 C70.1,157.1 72.5,157.5 78.8,148.3 C94.5,125.2 110,102 125.6,78.8 C126.4,77.5 127.1,76.1 127,74.5 Z"  fill="#DADBDB"></path>
                <path d="M348,215 C351.3,218.5 354.8,221.7 356.2,226.5 C357,229 358.4,232.1 355.2,233.4 C352,234.7 351.3,231.3 350.2,229.2 C349,226.7 348,224 345.6,222.2 C343.9,221 341.5,220.1 342.5,217.3 C343.4,214.8 345.9,215.3 348,215 C348,215 348,215 348,215 Z"  fill="#FEFDFD"></path>
                <path d="M357.1,34.4 C357.1,36 356.8,37.4 355,37.9 C353.1,38.4 351.7,37.6 351.1,35.8 C349.6,31.5 347.5,27.7 343.4,25.2 C342,24.3 341.8,22.6 342.9,21.2 C344.2,19.4 346.1,19.7 347.9,20.4 C351.8,21.9 357.1,30 357.1,34.4 Z"  fill="#FEFDFD"></path>
                <path d="M355.9,129 C356.1,131.1 355.4,132.7 353.7,133.3 C351.7,134 350.5,132.5 350,130.9 C348.7,127.2 346.8,124.1 344,121.4 C342.7,120.1 342.5,118.4 343.9,117 C345.1,115.7 346.6,115.8 348,116.7 C352.2,119.9 355.2,124 355.9,129 Z"  fill="#FEFDFD"></path>
                <g id="shield-keep" transform="translate(9.000000, 30.000000)" fill="#DADBDB">
                    <path d="M0.8,41 C1.3,33.2 0.3,24.8 1.7,16.3 C2.4,12.3 3.7,11.8 7.3,12.8 C28.2,18.1 47.4,13.1 65.5,2.3 C68.8,0.3 71,-0.1 74.6,2.8 C85.1,11.3 97.3,16.1 111.1,17.3 C118,17.9 124.7,17 131.4,16.6 C134.2,16.4 134.7,17.3 135.2,19.7 C139.2,40.4 140.2,61.3 138.9,82.2 C138,96.7 133.4,110.5 127.2,123.7 C117.2,145.3 104.6,165.2 87,181.5 C81.8,186.4 76.2,190.9 70.9,195.7 C69.2,197.2 67.9,197.3 66.2,195.7 C39.8,170.8 17.4,143.3 7.8,107.5 C4.5,95.3 2.7,82.9 1.8,70.2 C1.1,60.7 1.1,51.2 0.8,41 Z" id="Shape"></path>
                </g>
                <g id="g" transform="translate(313, 211)" fill="#87B3D6">
                    <path d="M35,4 C40.9,4.5 44.5,8.3 45.9,13.4 C49.6,26.9 46,38.8 32.4,44.2 C21,48.7 7.7,42.8 2.4,30.8 C-3.3,17.9 7.7,1.6 22.6,1 C26.9,0.9 31.6,0.1 35,4 C32.9,4.3 30.4,3.8 29.5,6.4 C28.5,9.2 30.9,10 32.6,11.3 C35,13 36,15.7 37.2,18.3 C38.2,20.5 39,23.8 42.2,22.5 C45.4,21.2 44,18.1 43.2,15.6 C41.8,10.7 38.3,7.4 35,4 Z" ></path>
                    <animate id="a" attributeName="fill" from="AFAFAF" to="1EB771" dur="0.2s" repeatCount="indefinite"/>
                </g>
                <g id="g" transform="translate(215, 225)" fill="#AFAFAF">
                    <path d="M4.1,0.2 C6.5,0.7 7.1,2.1 6.9,3.9 C6.6,6.3 5.4,8 2.8,7.9 C0.8,7.8 0,6.1 0.2,4.4 C0.6,2 2.4,0.8 4.1,0.2 Z" ></path>
                    <animate id="a" attributeName="fill" from="AFAFAF" to="1EB771" dur="0.9s" repeatCount="indefinite"/>
                </g>
                <g id="g" transform="translate(313, 16)" fill="#87B3D6">
                    <path d="M47.1,21.9 C46.9,36.3 37.7,45.4 23.6,45.2 C11.5,45 0.6,34.6 1,23.1 C1.5,9.1 11.3,0.7 24.6,0.4 C35.3,0.2 48.6,6.2 47.1,21.9 Z M44.1,18.4 C44.2,14 38.8,6 34.8,4.4 C33,3.7 31.1,3.5 29.8,5.2 C28.8,6.6 28.9,8.3 30.3,9.2 C34.4,11.7 36.5,15.4 38,19.8 C38.6,21.6 40,22.5 41.9,21.9 C43.7,21.4 44.1,20 44.1,18.4 Z" ></path>
                    <animate id="a" attributeName="fill" from="AFAFAF" to="1EB771" dur="1s" repeatCount="indefinite"/>
                </g>
                <g id="g" transform="translate(226, 31)" fill="#AFAFAF">
                    <path d="M6.9,2.7 C6.8,4.8 5.9,6 3.9,6 C2.2,6 1.1,5 1,3.3 C0.9,1.3 1.9,0.2 3.9,0.1 C5.8,0.1 6.7,1.1 6.9,2.7 Z" ></path>
                    <animate id="a" attributeName="fill" from="AFAFAF" to="1EB771" dur="1.5s" repeatCount="indefinite"/>
                </g>
                <g id="g" transform="translate(217, 51)" fill="#AFAFAF">
                    <path d="M5.9,2.8 C5.7,4.6 4.9,5.9 3.1,5.6 C1.5,5.4 0.4,4.3 0.3,2.6 C0.2,0.8 1.5,2.84217094e-14 3.2,2.84217094e-14 C5,0.2 5.8,1.3 5.9,2.8 Z" ></path>
                    <animate id="a" attributeName="fill" from="AFAFAF" to="1EB771" dur="3s" repeatCount="indefinite"/>
                </g>
                <g id="g" transform="translate(313, 112)" fill="#87B3D6">
                    <path d="M47.1,21.9 C46.9,36.2 37.5,45.4 23.6,45.2 C11.3,45 0.7,34.3 1,22.5 C1.3,10.3 12.5,-0.4 25.2,0.4 C36.2,0.9 48.5,6.6 47.1,21.9 Z M42.9,17 C42.1,11.9 39.2,7.9 34.9,4.7 C33.6,3.7 32.1,3.7 30.8,5 C29.4,6.5 29.6,8.1 30.9,9.4 C33.7,12.1 35.6,15.3 36.9,18.9 C37.4,20.4 38.6,22 40.6,21.3 C42.5,20.7 43.1,19.2 42.9,17 Z" ></path>
                    <animate id="a" attributeName="fill" from="AFAFAF" to="1EB771" dur="5s" repeatCount="indefinite"/>
                </g>
                <g id="g" transform="translate(331, 167)" fill="#AFAFAF">
                    <path d="M0.9,5.4 C1.1,1.9 2.6,0 5.8,0 C8.8,0 10.5,2.2 10.5,4.7 C10.6,7.5 9,9.8 5.7,10 C2.4,10.2 1.1,8.1 0.9,5.4 Z" ></path>
                    <animate id="a" attributeName="fill" from="AFAFAF" to="1EB771" dur="0.9s" repeatCount="indefinite"/>
                </g>
                <g id="r" transform="translate(262, 224)" fill="#AFAFAF">
                    <path d="M2.8,0.3 C4.9,0.7 6.1,1.6 6,3.6 C5.9,5.5 5,6.8 3,6.8 C1,6.8 0,5.6 0.1,3.7 C0.2,1.8 1.4,0.9 2.8,0.3 Z" ></path>
                    <animate id="a" attributeName="fill" from="AFAFAF" to="DB373E" dur="0.9s" repeatCount="indefinite"/>
                </g>
                <g id="r" transform="translate(227, 226)" fill="#AFAFAF">
                    <path d="M5.9,3.6 C5.5,5.3 4.6,6.8 2.7,6.5 C1.1,6.3 1.38777878e-17,5 0.1,3.4 C0.2,1.6 1.4,0.2 3.3,0.4 C4.9,0.6 5.8,1.9 5.9,3.6 Z" ></path>
                </g>
                <g id="r" transform="translate(353, 73)" fill="#AFAFAF">
                    <path d="M0.9,5.7 C1.2,2.8 2.7,0.4 5.9,0.3 C8.9,0.2 10.8,2.4 10.9,5.3 C11,8.8 8.9,10.9 5.3,10.9 C2.3,10.8 1,8.9 0.9,5.7 Z" ></path>
                    <animate id="a" attributeName="fill" from="AFAFAF" to="DB373E" dur="0.9s" repeatCount="indefinite"/>
                </g>
                <g id="r" transform="translate(260, 52)" fill="#AFAFAF">
                    <path d="M3,0.2 C4.7,0.3 5.8,1.2 5.8,3 C5.9,4.7 4.9,5.8 3.2,5.9 C1.2,6 0.1,4.9 0.1,3 C0.2,1.2 1.3,0.3 3,0.2 Z" ></path>
                    <animate id="a" attributeName="fill" from="AFAFAF" to="DB373E" dur="0.9s" repeatCount="indefinite"/>
                </g>
                <g id="r" transform="translate(250, 30)" fill="#AFAFAF">
                    <path d="M2.9,0 C4.7,0.1 5.7,1 5.9,2.7 C6,4.6 5,5.9 3,5.9 C1.3,6 0.2,5 0.1,3.2 C-0.1,1.4 0.9,0.2 2.9,0 Z" ></path>
                    <animate id="a" attributeName="fill" from="AFAFAF" to="DB373E" dur="0.9s" repeatCount="indefinite"/>
                </g>
                <g id="r" transform="translate(238, 42)" fill="#AFAFAF">
                    <path d="M3.5,0.2 C5.2,0.7 6.6,1.5 6.4,3.2 C6.3,4.8 5,5.9 3.3,5.9 C1.8,5.8 1,4.7 0.9,3.2 C0.9,1.4 1.9,0.5 3.5,0.2 Z" ></path>
                    <animate id="a" attributeName="fill" from="AFAFAF" to="DB373E" dur="0.9s" repeatCount="indefinite"/>
                </g>
                <g id="r" transform="translate(313, 167)" fill="#AFAFAF">
                    <path d="M10,5.7 C10,9.1 8.8,11.8 5.1,11.8 C2.1,11.8 0.2,9.6 0.1,6.7 C0.1,3.1 2.5,0.7 5.8,0.3 C9.3,-0.1 10,2.8 10,5.7 Z" ></path>
                    <animate id="a" attributeName="fill" from="AFAFAF" to="DB373E" dur="0.9s" repeatCount="indefinite"/>
                </g>
                <g id="r" transform="translate(226, 141)" fill="#AFAFAF">
                    <path d="M5.9,3.1 C5.7,4.9 4.8,5.9 3,5.9 C1.3,5.9 0.1,5 0.3,3.1 C0.5,1.5 1.6,0.4 3.2,0.3 C5.1,0.3 5.8,1.5 5.9,3.1 Z" ></path>
                    <animate id="a" attributeName="fill" from="AFAFAF" to="DB373E" dur="0.9s" repeatCount="indefinite"/>
                </g>
                <g id="r" transform="translate(260, 152)" fill="#AFAFAF">
                    <path d="M5.8,2.8 C5.4,4.3 4.6,5.7 2.8,5.6 C1.2,5.5 0.1,4.2 0.2,2.5 C0.2,1 1.3,0.1 2.9,0.1 C4.7,0 5.7,0.9 5.8,2.8 Z" ></path>
                    <animate id="a" attributeName="fill" from="AFAFAF" to="DB373E" dur="0.9s" repeatCount="indefinite"/>
                </g>
                <g id="draw" transform="translate(45, 70)" fill="#DADBDB">
                    <path d="M82,4.5 C82.1,6.1 81.4,7.4 80.6,8.7 C65,31.9 49.6,55.1 33.8,78.2 C27.5,87.4 25,87.1 19.3,77.7 C13.5,68.2 9.4,57.7 1.9,49.2 C0.5,47.6 0.5,45.4 2,43.7 C3.8,41.9 5.9,41.9 7.8,43.4 C12.2,46.9 15,51.7 17.7,56.4 C19.8,60.2 21.8,64 23.9,67.8 C26.6,72.6 26.8,72.6 29.8,68.1 C41.2,51 52.6,33.8 64.1,16.7 C67.2,12 70.4,7.3 73.8,2.8 C75.1,1.1 76.8,-0.4 79.4,0.6 C81.1,1.4 82.1,2.6 82,4.5 Z" ></path>
                </g>
            </g>
        </g>
    </g>
</svg>